<svg xmlns="http://www.w3.org/2000/svg" xmlns:xlink="http://www.w3.org/1999/xlink" width="1920" zoomAndPan="magnify" viewBox="0 0 1440 809.999993" height="1080" preserveAspectRatio="xMidYMid meet" version="1.0"><defs><clipPath id="8092903ee1"><path d="M 411.167969 96.488281 L 1027.667969 96.488281 L 1027.667969 712.988281 L 411.167969 712.988281 Z M 411.167969 96.488281 " clip-rule="nonzero"/></clipPath><clipPath id="6375f5a0ee"><path d="M 490.773438 204.84375 L 500.261719 204.84375 L 500.261719 214.574219 L 490.773438 214.574219 Z M 490.773438 204.84375 " clip-rule="nonzero"/></clipPath><clipPath id="ae9b088ad1"><path d="M 490.949219 212.101562 C 498.675781 204.824219 499.125 204.824219 499.5 205.050781 C 499.875 205.273438 500.324219 206.175781 500.25 206.625 C 500.25 207.074219 499.800781 207.601562 499.425781 207.75 C 498.976562 207.898438 497.925781 207.675781 497.625 207.300781 C 497.324219 206.925781 497.324219 205.949219 497.550781 205.5 C 497.773438 205.125 498.449219 204.898438 498.824219 204.898438 C 499.273438 204.898438 499.875 205.199219 500.101562 205.574219 C 500.25 206.023438 500.25 206.625 499.949219 207.375 C 499.125 209.101562 494.25 214.050781 492.601562 214.5 C 491.925781 214.648438 491.25 214.425781 490.949219 214.050781 C 490.648438 213.675781 490.949219 212.101562 490.949219 212.101562 " clip-rule="nonzero"/></clipPath><clipPath id="3b270ceacc"><path d="M 0.773438 0.84375 L 10.261719 0.84375 L 10.261719 10.574219 L 0.773438 10.574219 Z M 0.773438 0.84375 " clip-rule="nonzero"/></clipPath><clipPath id="f0802701d7"><path d="M 0.949219 8.101562 C 8.675781 0.824219 9.125 0.824219 9.5 1.050781 C 9.875 1.273438 10.324219 2.175781 10.25 2.625 C 10.25 3.074219 9.800781 3.601562 9.425781 3.75 C 8.976562 3.898438 7.925781 3.675781 7.625 3.300781 C 7.324219 2.925781 7.324219 1.949219 7.550781 1.5 C 7.773438 1.125 8.449219 0.898438 8.824219 0.898438 C 9.273438 0.898438 9.875 1.199219 10.101562 1.574219 C 10.25 2.023438 10.25 2.625 9.949219 3.375 C 9.125 5.101562 4.25 10.050781 2.601562 10.5 C 1.925781 10.648438 1.25 10.425781 0.949219 10.050781 C 0.648438 9.675781 0.949219 8.101562 0.949219 8.101562 " clip-rule="nonzero"/></clipPath><clipPath id="4ea3b97637"><rect x="0" width="11" y="0" height="11"/></clipPath><clipPath id="29b63ef39c"><path d="M 486.109375 215.824219 L 495.339844 215.824219 L 495.339844 230.738281 L 486.109375 230.738281 Z M 486.109375 215.824219 " clip-rule="nonzero"/></clipPath><clipPath id="e72e729cb2"><path d="M 486.148438 228.75 C 493.351562 215.851562 494.023438 215.699219 494.476562 215.925781 C 494.925781 216.148438 495.449219 217.5 495.226562 217.949219 C 495 218.398438 493.574219 218.851562 493.125 218.625 C 492.675781 218.398438 492.300781 216.898438 492.601562 216.523438 C 492.898438 216.074219 494.324219 215.851562 494.773438 216.074219 C 495.148438 216.300781 495.375 216.976562 495.300781 217.800781 C 495.074219 220.050781 490.726562 228.375 488.851562 229.949219 C 488.101562 230.625 487.199219 230.851562 486.75 230.625 C 486.300781 230.398438 486.148438 228.75 486.148438 228.75 " clip-rule="nonzero"/></clipPath><clipPath id="08c28a54db"><path d="M 0.109375 0.824219 L 9.339844 0.824219 L 9.339844 15.738281 L 0.109375 15.738281 Z M 0.109375 0.824219 " clip-rule="nonzero"/></clipPath><clipPath id="af528e5f87"><path d="M 0.148438 13.75 C 7.351562 0.851562 8.023438 0.699219 8.476562 0.925781 C 8.925781 1.148438 9.449219 2.5 9.226562 2.949219 C 9 3.398438 7.574219 3.851562 7.125 3.625 C 6.675781 3.398438 6.300781 1.898438 6.601562 1.523438 C 6.898438 1.074219 8.324219 0.851562 8.773438 1.074219 C 9.148438 1.300781 9.375 1.976562 9.300781 2.800781 C 9.074219 5.050781 4.726562 13.375 2.851562 14.949219 C 2.101562 15.625 1.199219 15.851562 0.75 15.625 C 0.300781 15.398438 0.148438 13.75 0.148438 13.75 " clip-rule="nonzero"/></clipPath><clipPath id="11e7cdf15a"><rect x="0" width="10" y="0" height="16"/></clipPath></defs><g clip-path="url(#8092903ee1)"><path fill="#7f22fe" d="M 733.910156 683.871094 C 805.324219 680.238281 869.675781 649.777344 917.082031 602.371094 C 964.488281 554.964844 994.917969 490.644531 998.582031 419.199219 L 941.640625 419.199219 C 933.648438 419.199219 927.167969 412.75 927.167969 404.753906 C 927.167969 364.003906 915.480469 326.046875 895.28125 294.046875 C 874.414062 260.96875 844.417969 234.199219 808.8125 217.195312 C 801.605469 213.765625 798.550781 205.132812 801.980469 197.953125 C 805.410156 190.746094 814.042969 187.695312 821.253906 191.125 C 861.738281 210.453125 895.863281 240.972656 919.695312 278.699219 C 940.332031 311.425781 953.179688 349.472656 955.652344 390.339844 L 998.582031 390.339844 C 994.949219 318.925781 964.488281 254.574219 917.082031 207.167969 C 869.675781 159.761719 805.351562 129.332031 733.910156 125.667969 L 733.910156 246.378906 C 772.074219 249.808594 806.339844 266.722656 831.917969 292.300781 C 860.695312 321.074219 878.511719 360.835938 878.511719 404.753906 C 878.511719 448.671875 860.695312 488.433594 831.917969 517.210938 C 825.523438 523.605469 818.550781 529.476562 811.136719 534.738281 L 835.582031 577.054688 C 867.496094 555.488281 893.132812 525.320312 909.058594 489.886719 C 912.285156 482.621094 920.832031 479.367188 928.097656 482.59375 C 935.363281 485.847656 938.617188 494.363281 935.363281 501.628906 C 916.558594 543.457031 885.953125 578.828125 847.847656 603.503906 C 814.625 625.015625 775.707031 638.414062 733.9375 640.941406 L 733.9375 683.871094 Z M 786.199219 549.152344 C 765.910156 558.539062 743.296875 563.800781 719.464844 563.800781 C 675.546875 563.800781 635.785156 545.984375 607.011719 517.210938 C 578.234375 488.433594 560.417969 448.671875 560.417969 404.753906 C 560.417969 360.835938 578.234375 321.074219 607.011719 292.300781 C 632.589844 266.722656 666.855469 249.808594 705.019531 246.378906 L 705.019531 197.546875 C 653.398438 201.09375 607.011719 223.503906 572.597656 257.886719 C 535.015625 295.46875 511.761719 347.410156 511.761719 404.753906 C 511.761719 447.714844 524.785156 487.59375 547.078125 520.667969 C 570.066406 554.792969 602.910156 581.734375 641.539062 597.371094 C 648.921875 600.367188 652.496094 608.796875 649.503906 616.179688 C 646.511719 623.558594 638.082031 627.136719 630.699219 624.140625 C 586.722656 606.324219 549.316406 575.660156 523.15625 536.828125 C 500.253906 502.824219 485.921875 462.597656 483.308594 419.230469 L 440.378906 419.230469 C 444.011719 490.644531 474.472656 554.996094 521.878906 602.402344 C 569.285156 649.804688 633.605469 680.238281 705.046875 683.902344 L 705.046875 626.960938 C 705.046875 618.96875 711.5 612.488281 719.492188 612.488281 C 752.25 612.488281 783.175781 604.957031 810.671875 591.5 L 786.226562 549.183594 Z M 592.332031 155.808594 L 613.8125 192.984375 C 641.539062 179.121094 672.378906 170.546875 705.019531 168.570312 L 705.019531 125.640625 C 664.589844 127.703125 626.457031 138.339844 592.359375 155.78125 Z M 588.875 207.402344 L 567.394531 170.195312 C 550.914062 180.921875 535.625 193.273438 521.789062 207.109375 C 474.382812 254.515625 443.953125 318.839844 440.289062 390.28125 L 483.21875 390.28125 C 486.824219 330.695312 512.460938 277.070312 552.105469 237.425781 C 563.296875 226.234375 575.589844 216.148438 588.84375 207.371094 Z M 590.09375 390.308594 L 639.449219 390.308594 C 642.441406 373.65625 650.492188 358.773438 661.972656 347.292969 C 676.679688 332.585938 696.996094 323.488281 719.4375 323.488281 C 741.875 323.488281 762.191406 332.585938 776.925781 347.292969 C 791.632812 362 800.730469 382.347656 800.730469 404.785156 C 800.730469 427.222656 791.632812 447.539062 776.925781 462.246094 C 762.21875 476.953125 741.875 486.050781 719.4375 486.050781 C 696.996094 486.050781 676.679688 476.953125 661.972656 462.246094 C 650.492188 450.796875 642.441406 435.882812 639.449219 419.230469 L 590.09375 419.230469 C 593.4375 449.398438 607.070312 476.460938 627.414062 496.804688 C 650.957031 520.347656 683.511719 534.910156 719.4375 534.910156 C 755.390625 534.910156 787.914062 520.347656 811.457031 496.804688 C 835 473.261719 849.5625 440.710938 849.5625 404.785156 C 849.5625 368.832031 835 336.304688 811.457031 312.761719 C 787.914062 289.21875 755.359375 274.660156 719.4375 274.660156 C 683.480469 274.660156 650.957031 289.21875 627.414062 312.761719 C 607.070312 333.109375 593.4375 360.167969 590.09375 390.339844 Z M 719.4375 457.132812 C 733.910156 457.132812 746.988281 451.261719 756.464844 441.785156 C 765.941406 432.308594 771.8125 419.230469 771.8125 404.753906 C 771.8125 390.28125 765.941406 377.203125 756.464844 367.726562 C 746.988281 358.25 733.910156 352.378906 719.4375 352.378906 C 704.960938 352.378906 691.882812 358.25 682.40625 367.726562 C 672.929688 377.203125 667.058594 390.28125 667.058594 404.753906 C 667.058594 419.230469 672.929688 432.308594 682.40625 441.785156 C 691.882812 451.261719 704.960938 457.132812 719.4375 457.132812 Z M 937.484375 622.804688 C 881.679688 678.609375 804.597656 713.140625 719.433594 713.140625 C 634.273438 713.140625 557.191406 678.609375 501.386719 622.804688 C 445.582031 567 411.050781 489.917969 411.050781 404.753906 C 411.050781 319.59375 445.582031 242.511719 501.386719 186.707031 C 557.191406 130.902344 634.273438 96.371094 719.433594 96.371094 C 804.597656 96.371094 881.679688 130.902344 937.484375 186.707031 C 993.289062 242.511719 1027.820312 319.59375 1027.820312 404.753906 C 1027.820312 489.917969 993.289062 567 937.484375 622.804688 Z M 937.484375 622.804688 " fill-opacity="1" fill-rule="nonzero"/></g><g clip-path="url(#6375f5a0ee)"><g clip-path="url(#ae9b088ad1)"><g transform="matrix(1, 0, 0, 1, 490, 204)"><g clip-path="url(#4ea3b97637)"><g clip-path="url(#3b270ceacc)"><g clip-path="url(#f0802701d7)"><rect x="-806.8" width="2073.6" fill="#7f22fe" height="1166.39999" y="-382.199998" fill-opacity="1"/></g></g></g></g></g></g><g clip-path="url(#29b63ef39c)"><g clip-path="url(#e72e729cb2)"><g transform="matrix(1, 0, 0, 1, 486, 215)"><g clip-path="url(#11e7cdf15a)"><g clip-path="url(#08c28a54db)"><g clip-path="url(#af528e5f87)"><rect x="-802.8" width="2073.6" fill="#7f22fe" height="1166.39999" y="-393.199998" fill-opacity="1"/></g></g></g></g></g></g></svg>